<svg version="1.1" xmlns="http://www.w3.org/2000/svg" width="420.19pt" height="1100.59pt" viewBox="0 0 420.19 1100.59"><style type="text/css">.dashed {stroke-dasharray: 5,5} .dotted {stroke-dasharray: 1,5} .overlay {fill: none; pointer-events: all}</style><g><g transform="translate(4, 1096.5899658203125)"><polygon stroke="#fffffe" stroke-opacity="0" fill="#ffffff" points="-4,4 -4,-1096.59 416.19,-1096.59 416.19,4"></polygon><g class="relation" style="opacity: 1;"><title>Connecting-&gt;Disconnected</title><path stroke="#000000" fill="none" d="M 187.22,-863.38 C 191.98,-871.93,196.48,-880.96,200,-889.8,203.26,-897.99,206.09,-906.78,208.54,-915.59"></path><path class="solid" stroke="#000000" fill="#000000" d="M 205.22,-916.73 L 211.14,-925.52,211.99,-914.96 Z"></path><text x="234.39" y="-894" text-anchor="middle" font-family="'Times-Roman',serif" font-size="14" fill="#000000">NotFound</text></g><g class="subgraph"><title>cluster_0</title><path class="dashed" stroke="#000000" fill="none" d="M 8,-8 L 8,-1084.59,369,-1084.59,369,-8 Z"></path><text x="188.5" y="-1067.99" text-anchor="middle" font-family="'Times-Roman',serif" font-size="14" fill="#000000">Handled Transitions</text></g><g class="node"><title>Disconnected</title><path stroke="#000000" fill="#d3d3d3" d="M 222,-988.19 m -63.68,0 a 63.68,63.68 0 1,0 127.36,0 a 63.68,63.68 0 1,0 -127.36,0"></path><text x="222" y="-983.99" text-anchor="middle" font-family="'Times-Roman',serif" font-size="14" fill="#000000">Disconnected</text></g><g class="node"><title>Connecting</title><path stroke="#000000" fill="#d3d3d3" d="M 157,-816.24 m -55.62,0 a 55.62,55.62 0 1,0 111.24,0 a 55.62,55.62 0 1,0 -111.24,0"></path><text x="157" y="-812.04" text-anchor="middle" font-family="'Times-Roman',serif" font-size="14" fill="#000000">Connecting</text></g><g class="node"><title>WaitingForPrint</title><path stroke="#000000" fill="#d3d3d3" d="M 187,-633.55 m -74.17,0 a 74.17,74.17 0 1,0 148.34,0 a 74.17,74.17 0 1,0 -148.34,0"></path><text x="187" y="-629.35" text-anchor="middle" font-family="'Times-Roman',serif" font-size="14" fill="#000000">WaitingForPrint</text></g><g class="node"><title>PrintingData</title><path stroke="#000000" fill="#d3d3d3" d="M 160,-446.02 m -60.27,0 a 60.27,60.27 0 1,0 120.54,0 a 60.27,60.27 0 1,0 -120.54,0"></path><text x="160" y="-441.82" text-anchor="middle" font-family="'Times-Roman',serif" font-size="14" fill="#000000">PrintingData</text></g><g class="node"><title>Disconnecting</title><path stroke="#000000" fill="#d3d3d3" d="M 251,-82.82 m -66.63,0 a 66.63,66.63 0 1,0 133.26,0 a 66.63,66.63 0 1,0 -133.26,0"></path><text x="251" y="-78.62" text-anchor="middle" font-family="'Times-Roman',serif" font-size="14" fill="#000000">Disconnecting</text></g><g class="node"><title>PaperJammed</title><path stroke="#000000" fill="#d3d3d3" d="M 100,-267.64 m -65.41,0 a 65.41,65.41 0 1,0 130.82,0 a 65.41,65.41 0 1,0 -130.82,0"></path><text x="100" y="-263.44" text-anchor="middle" font-family="'Times-Roman',serif" font-size="14" fill="#000000">PaperJammed</text></g><g class="relation" style="opacity: 1;"><title>Disconnected-&gt;Connecting</title><path stroke="#000000" fill="none" d="M 175.77,-944 C 166.61,-932.79,158.3,-920.06,153.34,-906.6,150.41,-898.64,148.9,-890.01,148.33,-881.36"></path><path class="solid" stroke="#000000" fill="#000000" d="M 151.83,-881.13 L 148.07,-871.23,144.83,-881.31 Z"></path><text x="177.33" y="-894" text-anchor="middle" font-family="'Times-Roman',serif" font-size="14" fill="#000000">Connect</text></g><g class="relation" style="opacity: 1;"><title>Connecting-&gt;WaitingForPrint</title><path stroke="#000000" fill="none" d="M 166,-761.03 C 168.29,-747.26,170.8,-732.15,173.26,-717.32"></path><path class="solid" stroke="#000000" fill="#000000" d="M 176.77,-717.55 L 174.95,-707.11,169.86,-716.4 Z"></path><text x="208.94" y="-730.08" text-anchor="middle" font-family="'Times-Roman',serif" font-size="14" fill="#000000">WaitForPrint</text></g><g class="relation" style="opacity: 1;"><title>WaitingForPrint-&gt;PrintingData</title><path stroke="#000000" fill="none" d="M 183.22,-559.06 C 182.15,-547.43,180.77,-535.56,179,-524.41,178.49,-521.2,177.91,-517.93,177.29,-514.63"></path><path class="solid" stroke="#000000" fill="#000000" d="M 180.69,-513.81 L 175.28,-504.7,173.83,-515.2 Z"></path><text x="208.83" y="-528.61" text-anchor="middle" font-family="'Times-Roman',serif" font-size="14" fill="#000000">PrintData</text></g><g class="relation" style="opacity: 1;"><title>WaitingForPrint-&gt;Disconnecting</title><path stroke="#000000" fill="none" d="M 227.19,-571.01 C 232.18,-561.33,236.68,-551.21,240,-541.21,266.83,-460.37,218.91,-424.3,262.02,-350.84,268.95,-339.04,280.76,-345.02,287,-332.84,313.41,-281.25,295.51,-259.76,287,-202.43,284.72,-187.07,280.86,-170.93,276.5,-155.69"></path><path class="solid" stroke="#000000" fill="#000000" d="M 279.77,-154.41 L 273.57,-145.82,273.06,-156.4 Z"></path><text x="294.49" y="-355.04" text-anchor="middle" font-family="'Times-Roman',serif" font-size="14" fill="#000000">Disconnect</text></g><g class="relation" style="opacity: 1;"><title>PrintingData-&gt;WaitingForPrint</title><path stroke="#000000" fill="none" d="M 114.93,-487.03 C 102.23,-503.16,93.66,-522.39,101.12,-541.21,106.28,-554.24,114.28,-566.49,123.36,-577.53"></path><path class="solid" stroke="#000000" fill="#000000" d="M 120.94,-580.08 L 130.14,-585.35,126.23,-575.5 Z"></path><text x="138.94" y="-528.61" text-anchor="middle" font-family="'Times-Roman',serif" font-size="14" fill="#000000">WaitForPrint</text></g><g class="relation" style="opacity: 1;"><title>PrintingData-&gt;PaperJammed</title><path stroke="#000000" fill="none" d="M 106.73,-417.49 C 88.25,-404.98,69.64,-388.29,59.47,-367.64,53.59,-355.69,54.19,-342.66,58.09,-330.11"></path><path class="solid" stroke="#000000" fill="#000000" d="M 61.41,-331.21 L 61.67,-320.62,54.86,-328.74 Z"></path><text x="99.26" y="-355.04" text-anchor="middle" font-family="'Times-Roman',serif" font-size="14" fill="#000000">PaperJammed</text></g><g class="relation" style="opacity: 1;"><title>PrintingData-&gt;Disconnecting</title><path stroke="#000000" fill="none" d="M 190.36,-393.66 C 194.45,-385.18,198.19,-376.32,201,-367.64,223.82,-297.1,210.68,-275.36,224.02,-202.43,226.67,-188,229.86,-172.67,233.11,-157.99"></path><path class="solid" stroke="#000000" fill="#000000" d="M 236.59,-158.47 L 235.37,-147.94,229.76,-156.93 Z"></path><text x="256.49" y="-263.44" text-anchor="middle" font-family="'Times-Roman',serif" font-size="14" fill="#000000">Disconnect</text></g><g class="relation" style="opacity: 1;"><title>PaperJammed-&gt;Connecting</title><path stroke="#000000" fill="none" d="M 63.64,-322.17 C 58.89,-331.39,54.74,-341.14,52,-350.84,-26.25,-628.41,40.28,-491.63,48.34,-541.21,61.11,-619.76,98.46,-704,125.82,-758.03"></path><path class="solid" stroke="#000000" fill="#000000" d="M 122.78,-759.78 L 130.46,-767.09,129.02,-756.6 Z"></path><text x="72.33" y="-528.61" text-anchor="middle" font-family="'Times-Roman',serif" font-size="14" fill="#000000">Connect</text></g><g class="relation" style="opacity: 1;"><title>PaperJammed-&gt;PrintingData</title><path stroke="#000000" fill="none" d="M 128.48,-326.41 C 131.95,-334.51,135.24,-342.81,138,-350.84,140.86,-359.15,143.46,-367.99,145.81,-376.81"></path><path class="solid" stroke="#000000" fill="#000000" d="M 142.47,-377.89 L 148.34,-386.72,149.25,-376.16 Z"></path><text x="169.83" y="-355.04" text-anchor="middle" font-family="'Times-Roman',serif" font-size="14" fill="#000000">PrintData</text></g><g class="relation" style="opacity: 1;"><title>PaperJammed-&gt;Disconnecting</title><path stroke="#000000" fill="none" d="M 120.12,-205.54 C 126.02,-192.32,133.29,-178.93,142.02,-167.63,154.27,-151.8,170.19,-137.34,186.06,-125.06"></path><path class="solid" stroke="#000000" fill="#000000" d="M 188.45,-127.64 L 194.34,-118.84,184.24,-122.05 Z"></path><text x="174.49" y="-171.83" text-anchor="middle" font-family="'Times-Roman',serif" font-size="14" fill="#000000">Disconnect</text></g><g class="relation" style="opacity: 1;"><title>Disconnecting-&gt;Disconnected</title><path stroke="#000000" fill="none" d="M 277.87,-144.42 C 281.06,-152.18,284.19,-160.06,287,-167.63,315.98,-245.58,317.53,-268.02,325,-350.84,347.32,-598.18,342.34,-669.96,267,-906.6,265.09,-912.62,262.7,-918.68,260.02,-924.65"></path><path class="solid" stroke="#000000" fill="#000000" d="M 256.75,-923.39 L 255.61,-933.92,263.07,-926.39 Z"></path><text x="374.1" y="-528.61" text-anchor="middle" font-family="'Times-Roman',serif" font-size="14" fill="#000000">Disconnected</text></g></g></g></svg>