<svg version="1.1" xmlns="http://www.w3.org/2000/svg" width="183pt" height="294.75pt" viewBox="0 0 183 294.75"><style type="text/css">.dashed {stroke-dasharray: 5,5} .dotted {stroke-dasharray: 1,5} .overlay {fill: none; pointer-events: all}</style><g><g transform="translate(4, 290.75)"><polygon stroke="#fffffe" stroke-opacity="0" fill="#ffffff" points="-4,4 -4,-290.75 179,-290.75 179,4"></polygon><g class="subgraph"><title>cluster_0</title><path class="dashed" stroke="#000000" fill="none" d="M 8,-8 L 8,-278.75,167,-278.75,167,-8 Z"></path><text x="87.5" y="-262.15" text-anchor="middle" font-family="'Times-Roman',serif" font-size="14" fill="#000000">Handled Transitions</text></g><g class="node"><title>Locked</title><path stroke="#000000" fill="#d3d3d3" d="M 65,-205.95 m -39.99,0 a 39.99,39.99 0 1,0 79.98,0 a 39.99,39.99 0 1,0 -79.98,0"></path><text x="65" y="-201.75" text-anchor="middle" font-family="'Times-Roman',serif" font-size="14" fill="#000000">Locked</text></g><g class="node"><title>Unlocked</title><path stroke="#000000" fill="#d3d3d3" d="M 65,-64.58 m -48.66,0 a 48.66,48.66 0 1,0 97.32,0 a 48.66,48.66 0 1,0 -97.32,0"></path><text x="65" y="-60.38" text-anchor="middle" font-family="'Times-Roman',serif" font-size="14" fill="#000000">Unlocked</text></g><g class="relation" style="opacity: 1;"><title>Locked-&gt;Locked</title><path stroke="#000000" fill="none" d="M 103.21,-218.29 C 114.36,-217.86,122.99,-213.75,122.99,-205.95,122.99,-200.71,119.1,-197.14,113.15,-195.22"></path><path class="solid" stroke="#000000" fill="#000000" d="M 113.64,-191.76 L 103.21,-193.61,112.52,-198.67 Z"></path><text x="136.61" y="-201.75" text-anchor="middle" font-family="'Times-Roman',serif" font-size="14" fill="#000000">Push</text></g><g class="relation" style="opacity: 1;"><title>Locked-&gt;Unlocked</title><path stroke="#000000" fill="none" d="M 53.52,-167.52 C 51.96,-161.06,50.61,-154.36,49.77,-147.96,48.66,-139.46,48.86,-130.51,49.84,-121.76"></path><path class="solid" stroke="#000000" fill="#000000" d="M 53.34,-122.03 L 51.31,-111.63,46.41,-121.02 Z"></path><text x="63.61" y="-135.36" text-anchor="middle" font-family="'Times-Roman',serif" font-size="14" fill="#000000">Coin</text></g><g class="relation" style="opacity: 1;"><title>Unlocked-&gt;Locked</title><path stroke="#000000" fill="none" d="M 75.86,-112.11 C 77.46,-123.79,78.21,-136.31,77,-147.96,76.7,-150.83,76.32,-153.78,75.88,-156.74"></path><path class="solid" stroke="#000000" fill="#000000" d="M 72.39,-156.36 L 74.17,-166.8,79.29,-157.53 Z"></path><text x="90.61" y="-135.36" text-anchor="middle" font-family="'Times-Roman',serif" font-size="14" fill="#000000">Push</text></g><g class="relation" style="opacity: 1;"><title>Unlocked-&gt;Unlocked</title><path stroke="#000000" fill="none" d="M 111.67,-78.24 C 123.08,-77.23,131.58,-72.67,131.58,-64.58,131.58,-59.14,127.74,-55.3,121.76,-53.06"></path><path class="solid" stroke="#000000" fill="#000000" d="M 122.18,-49.57 L 111.67,-50.92,120.72,-56.42 Z"></path><text x="145.19" y="-60.38" text-anchor="middle" font-family="'Times-Roman',serif" font-size="14" fill="#000000">Coin</text></g></g></g></svg>